inDegrees=yes
name=ik_S53_A11_T02
DataType=double
version=3
OpenSimVersion=4.3-2021-08-27-4bc7ad9
endheader
time	pelvis_tilt	pelvis_list	pelvis_rotation	pelvis_tx	pelvis_ty	pelvis_tz	hip_flexion_r	hip_adduction_r	hip_rotation_r	knee_angle_r	knee_angle_r_beta	ankle_angle_r	subtalar_angle_r	mtp_angle_r	hip_flexion_l	hip_adduction_l	hip_rotation_l	knee_angle_l	knee_angle_l_beta	ankle_angle_l	subtalar_angle_l	mtp_angle_l	lumbar_extension	lumbar_bending	lumbar_rotation	arm_flex_r	arm_add_r	arm_rot_r	elbow_flex_r	pro_sup_r	wrist_flex_r	wrist_dev_r	arm_flex_l	arm_add_l	arm_rot_l	elbow_flex_l	pro_sup_l	wrist_flex_l	wrist_dev_l
6.916666666666647	0.9754106967965031	-4.643603250427986	37.80792902147522	0	0.9399999999999999	0	32.91148121822028	-9.57581316514449	-8.974521076018174	38.58831372236671	0.6734931272478082	0	0	0	32.91148121822028	-9.57581316514449	-8.974521076018174	38.58831372236671	0.6734931272478082	0	0	0	-1.414086808689787	-3.855589726174067	5.143948967130855	109.0852622180587	14.59965217743953	-5.950196026393476	26.86870368807246	107.0598204398088	0	0	17.03732351130906	-20.31028223615489	-6.342488382186857	11.31915809594772	124.1121222907121	0	0
6.933333333333314	0.9898130130051411	-4.608245242593553	37.85371674739849	0	0.9399999999999999	0	32.94825279065778	-9.579446576033449	-8.980728938205658	38.62374377154035	0.6741114982600317	0	0	0	32.94825279065778	-9.579446576033449	-8.980728938205658	38.62374377154035	0.6741114982600317	0	0	0	-1.381186443951751	-3.840317325328869	5.136145644985161	109.0324365177862	14.55321417264705	-5.848156426050319	26.86594413590677	107.0051306563494	0	0	16.90892689770271	-20.30446180712264	-6.340614542468615	11.24419112057912	124.0589390934506	0	0
6.949999999999981	0.9785979696429665	-4.571810490291808	37.92248578245986	0	0.9399999999999999	0	32.95230840279691	-9.579925863041995	-8.981475638536677	38.62759818592713	0.6741787704818171	0	0	0	32.95230840279691	-9.579925863041995	-8.981475638536677	38.62759818592713	0.6741787704818171	0	0	0	-1.369706822406832	-3.802599647350524	5.106535648725248	109.0417862864417	14.48023732254755	-5.805203817297793	26.80451691468938	106.9925634271128	0	0	16.82200814771327	-20.19674816097399	-6.715645917838143	11.10202838796656	124.4329971335705	0	0
6.966666666666647	0.9692962538369131	-4.554386378781724	37.95672359803032	0	0.9399999999999999	0	32.95326075256076	-9.580035681366317	-8.98164823650376	38.62852314478361	0.6741949140593082	0	0	0	32.95326075256076	-9.580035681366317	-8.98164823650376	38.62852314478361	0.6741949140593082	0	0	0	-1.366041420028312	-3.783559909094883	5.111689459260188	109.0484904881191	14.40448746323385	-5.851197769237274	26.7810353843695	107.0274051359867	0	1.077613842297402e-35	16.74330337483038	-20.17282662382978	-6.760713672317485	11.02369531857698	124.441731141666	0	1.077613842297402e-35
6.983333333333314	0.9693136638139197	-4.533938352912014	37.968799748144	0	0.9399999999999999	0	32.95437995136786	-9.58016248892617	-8.981848782305299	38.62962721985534	0.674214183804499	0	0	0	32.95437995136786	-9.58016248892617	-8.981848782305299	38.62962721985534	0.674214183804499	0	0	0	-1.352947157585059	-3.768137402216734	5.11941745904666	109.0496774271185	14.32058990519744	-5.894360919346417	26.75510507401681	107.0791462270389	0	0	16.66136508400334	-20.14721172249376	-6.814857657572906	10.91681248704576	124.485634217941	0	0
6.99999999999998	0.9858060894374948	-4.504504979899984	37.9764675077507	0	0.9399999999999999	0	32.97667236227981	-9.582206168229526	-8.985484440292259	38.65127008350048	0.6745919230346671	0	0	0	32.97667236227981	-9.582206168229526	-8.985484440292259	38.65127008350048	0.6745919230346671	0	0	0	-1.321440819903033	-3.756120828010582	5.129852346227963	108.9959652292765	14.24800956820882	-5.881679473656378	26.74209609089345	107.0727211924527	0	0	16.57459204271696	-20.13715803355015	-6.846902338530611	10.7933654894927	124.5487271517031	0	0
7.016666666666647	0.9822960400398381	-4.477847061418243	37.96101619513356	0	0.9399999999999999	0	32.9934493138059	-9.583689616244333	-8.988166954225914	38.66764361639401	0.6748776950938427	0	0	0	32.9934493138059	-9.583689616244333	-8.988166954225914	38.66764361639401	0.6748776950938427	0	0	0	-1.307613874014532	-3.734457111535119	5.137124013113643	108.9403472734743	14.16598427674476	-5.876902431707455	26.78505903544893	107.1258103203855	0	0	16.55522329011711	-20.09967384950896	-6.876294069759145	10.76885757652571	124.5671754106391	0	0
